<svg width="24" height="24" viewBox="0 0 24 24" fill="none" xmlns="http://www.w3.org/2000/svg">
  <g clip-path="url(#clip0_2129_16008)">
    <path d="M22.6946 12.4683L23.9778 6.64416C24.0738 6.20895 23.7986 5.77801 23.3634 5.68254C22.9282 5.58547 22.4978 5.86121 22.4023 6.29642L21.2583 11.4875H16.1131C15.6677 11.4875 15.3067 11.8485 15.3067 12.2944C15.3067 12.7403 15.6677 13.1014 16.1131 13.1014H16.4187L14.6811 17.2151C14.5077 17.6263 14.6992 18.0988 15.1104 18.2722C15.2117 18.3154 15.3195 18.3362 15.424 18.3362C15.7387 18.3362 16.0374 18.1506 16.1675 17.8428L17.7537 14.0891L20.2694 14.0897L21.854 17.8428C22.0284 18.2535 22.502 18.4439 22.9111 18.2722C23.3218 18.0988 23.5138 17.6257 23.3404 17.2151L21.6033 13.1014H21.9089C22.2855 13.1008 22.6119 12.8384 22.6946 12.4683Z" fill="white"/>
    <path d="M7.57765 13.101H7.88325C8.3286 13.101 8.68967 12.7399 8.68967 12.2941C8.68967 11.8482 8.3286 11.4871 7.88325 11.4871H2.73807L1.59458 6.29658C1.49805 5.86137 1.06657 5.5851 0.633494 5.6827C0.198817 5.77817 -0.0769221 6.20911 0.01908 6.64432L1.30231 12.4685C1.38391 12.8381 1.71138 13.1015 2.09006 13.1015H2.39567L0.658027 17.2163C0.48469 17.627 0.676695 18.099 1.08737 18.2723C1.49698 18.4451 1.97059 18.2531 2.14446 17.843L3.72903 14.0898L6.24482 14.0893L7.82992 17.843C7.96006 18.1507 8.25873 18.3363 8.5734 18.3363C8.67794 18.3363 8.78461 18.3155 8.88701 18.2723C9.29769 18.099 9.48969 17.6259 9.31635 17.2163L7.57765 13.101Z" fill="white"/>
    <path d="M13.2572 16.7217H12.8028V9.76425H17.1389C17.5842 9.76425 17.9458 9.40317 17.9458 8.95783C17.9458 8.51249 17.5842 8.15088 17.1389 8.15088H6.85383C6.40848 8.15088 6.04688 8.51249 6.04688 8.95783C6.04688 9.40264 6.40848 9.76425 6.85383 9.76425H11.1899V16.7217H10.7355C10.2902 16.7217 9.92909 17.0839 9.92909 17.5292C9.92909 17.9746 10.2902 18.3362 10.7355 18.3362H13.2572C13.7036 18.3362 14.0647 17.9746 14.0647 17.5292C14.0647 17.0839 13.7036 16.7217 13.2572 16.7217Z" fill="white"/>
  </g>
  <defs>
    <clipPath id="clip0_2129_16008">
      <rect width="24" height="24" fill="white"/>
    </clipPath>
  </defs>
</svg>