<?xml version="1.0" encoding="UTF-8" standalone="no"?> <svg xmlns="http://www.w3.org/2000/svg" viewBox="0 0 64 64" stroke="#fff"><title>birthday, cake, party, candle, celebration, </title><g id="Outline"><path d="M5.5,62h53A3.5,3.5,0,0,0,62,58.5V56H58.74A5.47,5.47,0,0,0,60,52.5c0-2.21-2.58-5.43-4-7V24.84A2.84,2.84,0,0,0,53.16,22H45V15.1A1.1,1.1,0,0,0,43.9,14H43V12.86A4,4,0,0,0,46,9c0-1.94-2.71-5.06-3.26-5.67L42,2.5l-.74.83C40.71,3.94,38,7.06,38,9a4,4,0,0,0,3,3.86V14h-.9A1.1,1.1,0,0,0,39,15.1V22H35V15.1A1.1,1.1,0,0,0,33.9,14H33V12.86A4,4,0,0,0,36,9c0-1.94-2.71-5.06-3.26-5.67L32,2.5l-.74.83C30.71,3.94,28,7.06,28,9a4,4,0,0,0,3,3.86V14h-.9A1.1,1.1,0,0,0,29,15.1V22H25V15.1A1.1,1.1,0,0,0,23.9,14H23V12.86A4,4,0,0,0,26,9c0-1.94-2.71-5.06-3.26-5.67L22,2.5l-.74.83C20.71,3.94,18,7.06,18,9a4,4,0,0,0,3,3.86V14h-.9A1.1,1.1,0,0,0,19,15.1V22H10.84A2.84,2.84,0,0,0,8,24.84V45.46c-1.42,1.61-4,4.83-4,7A5.47,5.47,0,0,0,5.26,56H2v2.5A3.5,3.5,0,0,0,5.5,62ZM40,9c0-.64.94-2.13,2-3.45C43.06,6.88,44,8.38,44,9a2,2,0,0,1-4,0ZM30,9c0-.64.94-2.13,2-3.45C33.06,6.88,34,8.38,34,9a2,2,0,0,1-4,0ZM20,9c0-.64.94-2.13,2-3.45C23.06,6.88,24,8.38,24,9a2,2,0,0,1-4,0ZM54.5,56A3.5,3.5,0,0,1,51,52.5c0-1.25,1.86-3.85,3.5-5.72,1.64,1.87,3.5,4.47,3.5,5.72A3.5,3.5,0,0,1,54.5,56ZM15,52.5c0-1.25,1.86-3.85,3.5-5.72,1.64,1.87,3.5,4.47,3.5,5.72a3.5,3.5,0,0,1-7,0ZM14.26,56h-.52c.09-.11.18-.23.26-.35C14.08,55.77,14.17,55.89,14.26,56ZM10,39.44A4,4,0,0,0,12,40a4,4,0,0,0,4-4V31a2,2,0,0,1,4,0v5.5A5.27,5.27,0,0,0,25,42a5.27,5.27,0,0,0,5-5.5V31a2,2,0,0,1,4,0v5a4,4,0,0,0,8,0V31a2,2,0,0,1,4,0v5a5,5,0,0,0,5,5,5,5,0,0,0,3-1v4.4l-.22.23A28.08,28.08,0,0,0,50,49.53a28.08,28.08,0,0,0-3.78-4.92l-.72-.76-.72.76A28.08,28.08,0,0,0,41,49.53a28.08,28.08,0,0,0-3.78-4.92l-.72-.76-.72.76A28.08,28.08,0,0,0,32,49.53a28.08,28.08,0,0,0-3.78-4.92l-.72-.76-.72.76A28.08,28.08,0,0,0,23,49.53a28.08,28.08,0,0,0-3.78-4.92l-.72-.76-.72.76A28.08,28.08,0,0,0,14,49.53a28.08,28.08,0,0,0-3.78-4.92L10,44.38ZM23,55.65c.08.12.17.24.26.35h-.52C22.83,55.89,22.92,55.77,23,55.65Zm1-3.15c0-1.25,1.86-3.85,3.5-5.72,1.64,1.87,3.5,4.47,3.5,5.72a3.5,3.5,0,0,1-7,0Zm8,3.15c.08.12.17.24.26.35h-.52C31.83,55.89,31.92,55.77,32,55.65Zm1-3.15c0-1.25,1.86-3.85,3.5-5.72,1.64,1.87,3.5,4.47,3.5,5.72a3.5,3.5,0,0,1-7,0Zm8,3.15c.08.12.17.24.26.35h-.52C40.83,55.89,40.92,55.77,41,55.65Zm1-3.15c0-1.25,1.86-3.85,3.5-5.72,1.64,1.87,3.5,4.47,3.5,5.72a3.5,3.5,0,0,1-7,0Zm8,3.15c.08.12.17.24.26.35h-.52C49.83,55.89,49.92,55.77,50,55.65ZM41,16h2v6H41ZM31,16h2v6H31ZM21,16h2v6H21ZM10,24.84a.84.84,0,0,1,.84-.84H53.16a.84.84,0,0,1,.84.84V36a3,3,0,0,1-6,0V31a4,4,0,0,0-8,0v5a2,2,0,0,1-4,0V31a4,4,0,0,0-8,0v5.5A3.28,3.28,0,0,1,25,40a3.28,3.28,0,0,1-3-3.5V31a4,4,0,0,0-8,0v5a2,2,0,0,1-4,0V24.84ZM6,52.5c0-1.25,1.86-3.85,3.5-5.72,1.64,1.87,3.5,4.47,3.5,5.72a3.5,3.5,0,0,1-7,0ZM4,58H60v.5A1.5,1.5,0,0,1,58.5,60H5.5A1.5,1.5,0,0,1,4,58.5Z"/><rect x="13" y="42" width="2" height="2"/><rect x="31" y="41" width="2" height="2"/><rect x="49" y="43" width="2" height="2"/></g></svg>