<svg width="14" height="14" viewBox="0 0 14 14" fill="none" xmlns="http://www.w3.org/2000/svg">
<g clip-path="url(#clip0_1222_38328)">
<path d="M5.25 0.5H1C0.723858 0.5 0.5 0.723858 0.5 1V5.25C0.5 5.52614 0.723858 5.75 1 5.75H5.25C5.52614 5.75 5.75 5.52614 5.75 5.25V1C5.75 0.723858 5.52614 0.5 5.25 0.5Z" stroke="white" stroke-linecap="round" stroke-linejoin="round"/>
<path d="M13 0.5H8.75C8.47386 0.5 8.25 0.723858 8.25 1V5.25C8.25 5.52614 8.47386 5.75 8.75 5.75H13C13.2761 5.75 13.5 5.52614 13.5 5.25V1C13.5 0.723858 13.2761 0.5 13 0.5Z" stroke="white" stroke-linecap="round" stroke-linejoin="round"/>
<path d="M5.25 8.25H1C0.723858 8.25 0.5 8.47386 0.5 8.75V13C0.5 13.2761 0.723858 13.5 1 13.5H5.25C5.52614 13.5 5.75 13.2761 5.75 13V8.75C5.75 8.47386 5.52614 8.25 5.25 8.25Z" stroke="white" stroke-linecap="round" stroke-linejoin="round"/>
<path d="M13 8.25H8.75C8.47386 8.25 8.25 8.47386 8.25 8.75V13C8.25 13.2761 8.47386 13.5 8.75 13.5H13C13.2761 13.5 13.5 13.2761 13.5 13V8.75C13.5 8.47386 13.2761 8.25 13 8.25Z" stroke="white" stroke-linecap="round" stroke-linejoin="round"/>
<path d="M0.5 3.5H5.75" stroke="white" stroke-linecap="round" stroke-linejoin="round"/>
<path d="M8.25 3.5H13.5" stroke="white" stroke-linecap="round" stroke-linejoin="round"/>
<path d="M8.25 11.25H13.5" stroke="white" stroke-linecap="round" stroke-linejoin="round"/>
<path d="M0.5 11.25H5.75" stroke="white" stroke-linecap="round" stroke-linejoin="round"/>
</g>
<defs>
<clipPath id="clip0_1222_38328">
<rect width="14" height="14" fill="white"/>
</clipPath>
</defs>
</svg>
