<?xml version="1.0" encoding="iso-8859-1"?>
<!-- Uploaded to: SVG Repo, www.svgrepo.com, Generator: SVG Repo Mixer Tools -->
<svg fill="#fff" height="800px" width="800px" version="1.1" id="Layer_1" xmlns="http://www.w3.org/2000/svg"
	xmlns:xlink="http://www.w3.org/1999/xlink" viewBox="0 0 488 488" xml:space="preserve">
	<g>
		<g>
			<g>
				<path d="M239.984,113.336c-79.304,0-143.816,64.512-143.816,143.824s64.512,143.824,143.816,143.824
				c79.336,0,143.872-64.512,143.872-143.824S319.32,113.336,239.984,113.336z M239.984,384.976
				c-70.48,0-127.816-57.336-127.816-127.824s57.336-127.824,127.816-127.824c70.504,0,127.872,57.336,127.872,127.824
				S310.496,384.976,239.984,384.976z" />
				<path d="M239.992,160.624c-53.232,0-96.536,43.304-96.536,96.536c0,53.232,43.312,96.536,96.536,96.536
				c53.232,0,96.536-43.312,96.536-96.536S293.224,160.624,239.992,160.624z M239.992,337.696
				c-44.408,0-80.536-36.128-80.536-80.536c0-44.408,36.128-80.536,80.536-80.536s80.536,36.128,80.536,80.536
				S284.4,337.696,239.992,337.696z" />
				<path d="M289.04,249.16c-4.424,0-8,3.584-8,8c0,22.632-18.416,41.048-41.048,41.048c-22.616,0-41.008-18.416-41.008-41.048
				c0-4.416-3.584-8-8-8s-8,3.584-8,8c0,31.456,25.576,57.048,57.008,57.048c31.456,0,57.048-25.592,57.048-57.048
				C297.04,252.736,293.464,249.16,289.04,249.16z" />
				<path d="M88,64c-4.416,0-8,3.584-8,8v80H56V72c0-4.416-3.584-8-8-8s-8,3.584-8,8v80H16V72c0-4.416-3.584-8-8-8s-8,3.584-8,8v88
				v48c0,10.416,6.712,19.216,16,22.528V392v16c0,13.232,10.768,24,24,24h16c13.232,0,24-10.768,24-24v-16V230.528
				c9.288-3.312,16-12.112,16-22.528v-48V72C96,67.584,92.416,64,88,64z M64,408c0,4.408-3.592,8-8,8H40c-4.408,0-8-3.592-8-8v-8h32
				V408z M64,384H32v-80h32V384z M64,288H32v-16h32V288z M64,256H32v-24h32V256z M80,208c0,4.408-3.592,8-8,8H24
				c-4.408,0-8-3.592-8-8v-40h24v8c0,4.416,3.584,8,8,8s8-3.584,8-8v-8h24V208z" />
				<path
					d="M432,56c-31.4,0-56,38.656-56,88c0,30.496,9.408,56.872,24,72.608V392v16c0,13.232,10.768,24,24,24h16
				c13.232,0,24-10.768,24-24v-16V216.608c14.592-15.736,24-42.112,24-72.608C488,94.656,463.4,56,432,56z M448,408
				c0,4.408-3.584,8-8,8h-16c-4.416,0-8-3.592-8-8v-8h32V408z M448,384h-32v-80h32V384z M448,288h-32v-16h32V288z M448,256h-32
				v-27.568c5.056,2.296,10.416,3.568,16,3.568c5.584,0,10.944-1.272,16-3.568V256z M449.936,208h-35.864
				C401.112,195.928,392,171.496,392,144c0-39.024,18.32-72,40-72s40,32.976,40,72C472,171.496,462.888,195.928,449.936,208z" />
			</g>
		</g>
	</g>
</svg>