<svg xmlns="http://www.w3.org/2000/svg" width="14" height="14" viewBox="0 0 14 14" fill="none">
                <path d="M11.6665 0H2.33317V1.16667H11.6665V0ZM2.33317 14H11.6665V12.8333H2.33317V14ZM11.6665 2.33333H2.33317C1.6915 2.33333 1.1665 2.85833 1.1665 3.5V10.5C1.1665 11.1417 1.6915 11.6667 2.33317 11.6667H11.6665C12.3082 11.6667 12.8332 11.1417 12.8332 10.5V3.5C12.8332 2.85833 12.3082 2.33333 11.6665 2.33333ZM6.99984 3.9375C7.72317 3.9375 8.31234 4.52667 8.31234 5.25C8.31234 5.97333 7.72317 6.5625 6.99984 6.5625C6.2765 6.5625 5.68734 5.97333 5.68734 5.25C5.68734 4.52667 6.2765 3.9375 6.99984 3.9375ZM9.9165 9.91667H4.08317V9.04167C4.08317 8.0675 6.02567 7.58333 6.99984 7.58333C7.974 7.58333 9.9165 8.0675 9.9165 9.04167V9.91667Z" fill="white" />
            </svg>