<svg xmlns="http://www.w3.org/2000/svg" width="14" height="14" viewBox="0 0 14 14" fill="none">
                <path d="M4.08317 1.74998H2.33317V3.49998H1.1665V0.583313H4.08317V1.74998ZM12.8332 3.49998V0.583313H9.9165V1.74998H11.6665V3.49998H12.8332ZM4.08317 12.25H2.33317V10.5H1.1665V13.4166H4.08317V12.25ZM11.6665 10.5V12.25H9.9165V13.4166H12.8332V10.5H11.6665ZM9.9165 3.49998H4.08317V10.5H9.9165V3.49998ZM11.0832 10.5C11.0832 11.1416 10.5582 11.6666 9.9165 11.6666H4.08317C3.4415 11.6666 2.9165 11.1416 2.9165 10.5V3.49998C2.9165 2.85831 3.4415 2.33331 4.08317 2.33331H9.9165C10.5582 2.33331 11.0832 2.85831 11.0832 3.49998V10.5ZM8.74984 4.66665H5.24984V5.83331H8.74984V4.66665ZM8.74984 6.41665H5.24984V7.58331H8.74984V6.41665ZM8.74984 8.16665H5.24984V9.33331H8.74984V8.16665Z" fill="black" />
            </svg>