<svg xmlns="http://www.w3.org/2000/svg" width="14" height="14" viewBox="0 0 14 14" fill="none">
                <path fillRule="evenodd" clipRule="evenodd" d="M2.84375 3.0625H11.1576C11.563 3.06371 11.9514 3.22529 12.2381 3.51195C12.5247 3.79861 12.6863 4.18705 12.6875 4.59244L12.6875 4.59375L12.6875 8.96875L12.6875 8.97006C12.6863 9.37545 12.5247 9.76389 12.2381 10.0506C11.9514 10.3372 11.563 10.4988 11.1576 10.5L11.1562 10.5H10.5V9.625H11.1556C11.3296 9.62431 11.4963 9.55489 11.6193 9.43183C11.7424 9.30878 11.8118 9.14209 11.8125 8.96808V4.59442C11.8118 4.42041 11.7424 4.25372 11.6193 4.13067C11.4963 4.0076 11.3295 3.93817 11.1555 3.9375H2.84449C2.67046 3.93817 2.50374 4.0076 2.38067 4.13067C2.2576 4.25374 2.18817 4.42046 2.1875 4.59449V8.96801C2.18817 9.14204 2.2576 9.30876 2.38067 9.43183C2.50372 9.55489 2.67041 9.62431 2.84442 9.625H3.5V10.5H2.84375L2.84244 10.5C2.43705 10.4988 2.04861 10.3372 1.76195 10.0506C1.47529 9.76389 1.31371 9.37545 1.3125 8.97006L1.3125 8.96875V4.59244C1.31371 4.18705 1.47529 3.79861 1.76195 3.51195C2.04861 3.22529 2.43705 3.06371 2.84244 3.0625L2.84375 3.0625Z" fill="white" />
                <path fillRule="evenodd" clipRule="evenodd" d="M4.165 7C4.03936 7 3.9375 7.10186 3.9375 7.2275V11.585C3.9375 11.7106 4.03936 11.8125 4.165 11.8125H9.835C9.96064 11.8125 10.0625 11.7106 10.0625 11.585V7.2275C10.0625 7.10186 9.96064 7 9.835 7H4.165ZM3.0625 7.2275C3.0625 6.61861 3.55611 6.125 4.165 6.125H9.835C10.4439 6.125 10.9375 6.61861 10.9375 7.2275V11.585C10.9375 12.1939 10.4439 12.6875 9.835 12.6875H4.165C3.55611 12.6875 3.0625 12.1939 3.0625 11.585V7.2275Z" fill="white" />
                <path fillRule="evenodd" clipRule="evenodd" d="M4.59375 1.3125H9.40756C9.81295 1.31371 10.2014 1.47529 10.4881 1.76195C10.7747 2.04861 10.9363 2.43705 10.9375 2.84244L10.9375 2.84375L10.9375 3.5H10.0625V2.84442C10.0618 2.67041 9.99239 2.50372 9.86933 2.38067C9.74626 2.2576 9.57954 2.18817 9.40551 2.1875H4.59449C4.42046 2.18817 4.25374 2.2576 4.13067 2.38067C4.0076 2.50374 3.93817 2.67046 3.9375 2.84449V3.5H3.0625V2.84244C3.06371 2.43705 3.22529 2.04861 3.51195 1.76195C3.79861 1.47529 4.18705 1.31371 4.59244 1.3125L4.59375 1.3125Z" fill="white" />
            </svg>