<svg width="67" height="67" viewBox="0 0 67 67" fill="none" xmlns="http://www.w3.org/2000/svg">
<rect x="0.668945" y="0.668945" width="66" height="66" rx="8" fill="white"/>
<path d="M17.4585 55.1866C19.7985 55.1866 20.0145 51.2626 20.0145 48.1666V24.1546C20.0145 20.7706 18.0705 20.4466 17.8545 20.4466V20.4106H27.1065V20.4466C26.9265 20.4466 24.9825 20.7706 24.9825 24.1546V48.1666C24.9825 52.8826 22.1385 55.2586 17.4585 55.2586V55.1866ZM30.0604 48.4906V48.4546C30.2764 48.4546 32.2204 48.1306 32.2204 44.7466V24.1546C32.2204 20.7706 30.2764 20.4466 30.0604 20.4466V20.4106H39.8524C43.2004 20.4106 45.8284 20.9866 47.5204 22.3186C49.2484 23.5426 50.1484 25.4866 50.1484 28.1866C50.1484 31.3546 48.7804 33.6946 46.5844 35.2066C44.4604 36.7546 41.5084 37.4746 38.3404 37.4746H37.1884V44.7466C37.1884 48.1306 39.1324 48.4546 39.3124 48.4546V48.4906H30.0604ZM37.1884 36.6826H38.0164C39.9964 36.6826 41.7604 36.1426 42.9844 34.9186C44.3524 33.5506 45.1444 31.3546 45.1444 28.3666C45.1444 25.8106 44.5324 23.9746 43.4524 22.8226C42.4804 21.7066 41.0764 21.2026 39.1684 21.2026H37.1884V36.6826Z" fill="#171923"/>
</svg>
