<svg width="44" height="45" viewBox="0 0 44 45" fill="none" xmlns="http://www.w3.org/2000/svg">
<g id="arrow_circle_right">
<path id="Vector" d="M40.3327 22.3177C40.3327 12.1977 32.1193 3.98438 21.9993 3.98438C11.8793 3.98438 3.66602 12.1977 3.66602 22.3177C3.66602 32.4377 11.8793 40.651 21.9993 40.651C32.1193 40.651 40.3327 32.4377 40.3327 22.3177ZM7.33268 22.3177C7.33268 14.2144 13.896 7.65104 21.9993 7.65104C30.1027 7.65104 36.666 14.2144 36.666 22.3177C36.666 30.421 30.1027 36.9844 21.9993 36.9844C13.896 36.9844 7.33268 30.421 7.33268 22.3177ZM29.3327 22.3177L21.9993 29.651L19.4143 27.066L22.311 24.151H14.666V20.4844H22.311L19.396 17.5694L21.9993 14.9844L29.3327 22.3177Z" fill="#F7F5F2"/>
</g>
</svg>
