<svg width="44" height="44" viewBox="0 0 44 44" fill="none" xmlns="http://www.w3.org/2000/svg">
<g id="arrow_circle_left">
<path id="Vector" d="M3.66602 21.9998C3.66602 32.1198 11.8793 40.3332 21.9993 40.3332C32.1193 40.3332 40.3327 32.1198 40.3327 21.9998C40.3327 11.8798 32.1193 3.6665 21.9993 3.6665C11.8793 3.6665 3.66602 11.8798 3.66602 21.9998ZM36.666 21.9998C36.666 30.1032 30.1027 36.6665 21.9993 36.6665C13.896 36.6665 7.33268 30.1032 7.33268 21.9998C7.33268 13.8965 13.896 7.33317 21.9993 7.33317C30.1027 7.33317 36.666 13.8965 36.666 21.9998ZM14.666 21.9998L21.9993 14.6665L24.5843 17.2515L21.6877 20.1665H29.3327V23.8332H21.6877L24.6027 26.7482L21.9993 29.3332L14.666 21.9998Z" fill="#F7F5F2"/>
</g>
</svg>
