<svg xmlns="http://www.w3.org/2000/svg" width="25" height="24" viewBox="0 0 25 24" fill="none">
  <path fill-rule="evenodd" clip-rule="evenodd" d="M12.5 0C5.87258 0 0.5 5.37258 0.5 12C0.5 18.6274 5.87258 24 12.5 24C19.1274 24 24.5 18.6274 24.5 12C24.5 5.37258 19.1274 0 12.5 0ZM19.7071 8.70711C20.0976 8.31658 20.0976 7.68342 19.7071 7.29289C19.3166 6.90237 18.6834 6.90237 18.2929 7.29289L11.0428 14.543L7.74741 10.8356C7.38049 10.4229 6.74842 10.3857 6.33564 10.7526C5.92285 11.1195 5.88567 11.7516 6.25259 12.1644L10.2526 16.6644C10.4356 16.8702 10.6953 16.9915 10.9706 16.9996C11.2459 17.0077 11.5124 16.9019 11.7071 16.7071L19.7071 8.70711Z" fill="white"/>
</svg>