<svg width="16" height="16" viewBox="0 0 16 16" fill="none" xmlns="http://www.w3.org/2000/svg">
<g id=".left-icon">
<path id="Vector (Stroke)" fill-rule="evenodd" clip-rule="evenodd" d="M7.33464 2.66659C7.15782 2.66659 6.98826 2.73682 6.86323 2.86185C6.73821 2.98687 6.66797 3.15644 6.66797 3.33325C6.66797 3.51006 6.73821 3.67963 6.86323 3.80466C6.98826 3.92968 7.15782 3.99992 7.33464 3.99992H8.66797C8.84478 3.99992 9.01435 3.92968 9.13937 3.80466C9.2644 3.67963 9.33463 3.51006 9.33463 3.33325C9.33463 3.15644 9.2644 2.98687 9.13937 2.86185C9.01435 2.73682 8.84478 2.66659 8.66797 2.66659H7.33464ZM10.5536 3.99992C10.4551 4.27852 10.2951 4.53453 10.0822 4.74747C9.70711 5.12254 9.1984 5.33325 8.66797 5.33325H7.33464C6.8042 5.33325 6.29549 5.12254 5.92042 4.74747C5.70749 4.53453 5.54752 4.27852 5.44902 3.99992H4.66797C4.49116 3.99992 4.32159 4.07016 4.19656 4.19518C4.07154 4.32021 4.0013 4.48977 4.0013 4.66659V12.6666C4.0013 12.8434 4.07154 13.013 4.19656 13.138C4.32159 13.263 4.49116 13.3333 4.66797 13.3333H11.3346C11.5114 13.3333 11.681 13.263 11.806 13.138C11.9311 13.013 12.0013 12.8434 12.0013 12.6666V4.66659C12.0013 4.48977 11.9311 4.32021 11.806 4.19518C11.681 4.07016 11.5114 3.99992 11.3346 3.99992H10.5536ZM10.5536 2.66659C10.4551 2.38798 10.2951 2.13197 10.0822 1.91904C9.70711 1.54397 9.1984 1.33325 8.66797 1.33325H7.33464C6.8042 1.33325 6.29549 1.54397 5.92042 1.91904C5.70749 2.13197 5.54752 2.38798 5.44902 2.66659H4.66797C4.13754 2.66659 3.62883 2.8773 3.25376 3.25237C2.87868 3.62744 2.66797 4.13615 2.66797 4.66659V12.6666C2.66797 13.197 2.87868 13.7057 3.25376 14.0808C3.62883 14.4559 4.13754 14.6666 4.66797 14.6666H11.3346C11.8651 14.6666 12.3738 14.4559 12.7488 14.0808C13.1239 13.7057 13.3346 13.197 13.3346 12.6666V4.66659C13.3346 4.13615 13.1239 3.62744 12.7488 3.25237C12.3738 2.8773 11.8651 2.66659 11.3346 2.66659H10.5536ZM5.33464 7.99992C5.33464 7.63173 5.63311 7.33325 6.0013 7.33325H6.00797C6.37616 7.33325 6.67464 7.63173 6.67464 7.99992C6.67464 8.36811 6.37616 8.66659 6.00797 8.66659H6.0013C5.63311 8.66659 5.33464 8.36811 5.33464 7.99992ZM7.33464 7.99992C7.33464 7.63173 7.63311 7.33325 8.0013 7.33325H10.0013C10.3695 7.33325 10.668 7.63173 10.668 7.99992C10.668 8.36811 10.3695 8.66659 10.0013 8.66659H8.0013C7.63311 8.66659 7.33464 8.36811 7.33464 7.99992ZM5.33464 10.6666C5.33464 10.2984 5.63311 9.99992 6.0013 9.99992H6.00797C6.37616 9.99992 6.67464 10.2984 6.67464 10.6666C6.67464 11.0348 6.37616 11.3333 6.00797 11.3333H6.0013C5.63311 11.3333 5.33464 11.0348 5.33464 10.6666ZM7.33464 10.6666C7.33464 10.2984 7.63311 9.99992 8.0013 9.99992H10.0013C10.3695 9.99992 10.668 10.2984 10.668 10.6666C10.668 11.0348 10.3695 11.3333 10.0013 11.3333H8.0013C7.63311 11.3333 7.33464 11.0348 7.33464 10.6666Z" fill="#4B5563"/>
</g>
</svg>
