<svg width="25" height="25" viewBox="0 0 25 25" fill="none" xmlns="http://www.w3.org/2000/svg">
<g id="Facebook">
<g clip-path="url(#clip0_688_707)">
<path id="Vector" d="M24.5 0.682129H0.5V24.6821H24.5V0.682129Z" fill="#F7F5F2"/>
<path id="Vector_2" d="M22.5 12.6821C22.5 7.16213 18.02 2.68213 12.5 2.68213C6.98 2.68213 2.5 7.16213 2.5 12.6821C2.5 17.5221 5.94 21.5521 10.5 22.4821V15.6821H8.5V12.6821H10.5V10.1821C10.5 8.25213 12.07 6.68213 14 6.68213H16.5V9.68213H14.5C13.95 9.68213 13.5 10.1321 13.5 10.6821V12.6821H16.5V15.6821H13.5V22.6321C18.55 22.1321 22.5 17.8721 22.5 12.6821Z" fill="black"/>
</g>
</g>
<defs>
<clipPath id="clip0_688_707">
<rect x="0.5" y="0.682129" width="24" height="24" rx="4" fill="white"/>
</clipPath>
</defs>
</svg>
