<svg width="21" height="22" viewBox="0 0 21 22" fill="none" xmlns="http://www.w3.org/2000/svg">
<g id="Group">
<path id="Vector" d="M20.9399 11.2401C20.9399 10.5378 20.8777 9.87118 20.771 9.22229H10.7266V13.2312H16.4777C16.2199 14.5467 15.4643 15.6578 14.3443 16.4134V19.0801H17.7755C19.7843 17.2223 20.9399 14.4845 20.9399 11.2401Z" fill="#4285F4"/>
<path id="Vector_2" d="M10.727 21.6668C13.607 21.6668 16.0159 20.7068 17.7759 19.0801L14.3448 16.4134C13.3848 17.0534 12.167 17.4445 10.727 17.4445C7.94481 17.4445 5.58925 15.569 4.74481 13.0356H1.20703V15.7823C2.95814 19.2668 6.55814 21.6668 10.727 21.6668Z" fill="#34A853"/>
<path id="Vector_3" d="M4.74304 13.0355C4.52082 12.3955 4.40526 11.7111 4.40526 11C4.40526 10.2889 4.52971 9.60444 4.74304 8.96444V6.21777H1.20526C0.476371 7.65777 0.0585938 9.27555 0.0585938 11C0.0585938 12.7244 0.476371 14.3422 1.20526 15.7822L4.74304 13.0355Z" fill="#FBBC05"/>
<path id="Vector_4" d="M10.727 4.5556C12.3004 4.5556 13.7048 5.09782 14.8159 6.1556L17.8559 3.1156C16.0159 1.39115 13.607 0.333374 10.727 0.333374C6.55814 0.333374 2.95814 2.73338 1.20703 6.21782L4.74481 8.96449C5.58925 6.43115 7.94481 4.5556 10.727 4.5556Z" fill="#EA4335"/>
</g>
</svg>
