                <svg xmlns="http://www.w3.org/2000/svg" width="16" height="16" viewBox="0 0 16 16" fill="none">
                <path fill-rule="evenodd" clip-rule="evenodd" d="M3.25 3.5C3.05109 3.5 2.86032 3.57902 2.71967 3.71967C2.57902 3.86032 2.5 4.05109 2.5 4.25V11.75C2.5 11.9489 2.57902 12.1397 2.71967 12.2803C2.86032 12.421 3.05109 12.5 3.25 12.5H8.25C8.44891 12.5 8.63968 12.421 8.78033 12.2803C8.92098 12.1397 9 11.9489 9 11.75V10.5C9 10.2239 9.22386 10 9.5 10C9.77614 10 10 10.2239 10 10.5V11.75C10 12.2141 9.81563 12.6592 9.48744 12.9874C9.15925 13.3156 8.71413 13.5 8.25 13.5H3.25C2.78587 13.5 2.34075 13.3156 2.01256 12.9874C1.68437 12.6592 1.5 12.2141 1.5 11.75V4.25C1.5 3.78587 1.68437 3.34075 2.01256 3.01256C2.34075 2.68437 2.78587 2.5 3.25 2.5H8C8.4695 2.5 8.95094 2.68555 9.31724 2.97255C9.68164 3.25806 10 3.7016 10 4.25V5.5C10 5.77614 9.77614 6 9.5 6C9.22386 6 9 5.77614 9 5.5V4.25C9 4.10808 8.91352 3.92662 8.70049 3.75971C8.48937 3.5943 8.22081 3.5 8 3.5H3.25ZM11.1464 5.14645C11.3417 4.95118 11.6583 4.95118 11.8536 5.14645L14.3536 7.64645C14.5488 7.84171 14.5488 8.15829 14.3536 8.35355L11.8536 10.8536C11.6583 11.0488 11.3417 11.0488 11.1464 10.8536C10.9512 10.6583 10.9512 10.3417 11.1464 10.1464L12.7929 8.5H5.5C5.22386 8.5 5 8.27614 5 8C5 7.72386 5.22386 7.5 5.5 7.5H12.7929L11.1464 5.85355C10.9512 5.65829 10.9512 5.34171 11.1464 5.14645Z" fill="white"/>
</svg>