<svg xmlns="http://www.w3.org/2000/svg" xmlns:xlink="http://www.w3.org/1999/xlink" width="900" zoomAndPan="magnify" viewBox="0 0 675 675.000002" height="900" preserveAspectRatio="xMidYMid meet" version="1.0"><defs><clipPath id="a556272a84"><path d="M 251 247.230469 L 411 247.230469 L 411 384 L 251 384 Z M 251 247.230469 " clip-rule="nonzero"/></clipPath><clipPath id="18607cd96a"><path d="M 436 276 L 449.957031 276 L 449.957031 291 L 436 291 Z M 436 276 " clip-rule="nonzero"/></clipPath><clipPath id="f49597f39f"><path d="M 444 302 L 449.957031 302 L 449.957031 400 L 444 400 Z M 444 302 " clip-rule="nonzero"/></clipPath><clipPath id="e6901f0f06"><path d="M 436 412 L 449.957031 412 L 449.957031 426.964844 L 436 426.964844 Z M 436 412 " clip-rule="nonzero"/></clipPath><clipPath id="c5aad6dd53"><path d="M 249 420 L 426 420 L 426 426.964844 L 249 426.964844 Z M 249 420 " clip-rule="nonzero"/></clipPath><clipPath id="43e2b1692e"><path d="M 225.289062 412 L 239 412 L 239 426.964844 L 225.289062 426.964844 Z M 225.289062 412 " clip-rule="nonzero"/></clipPath><clipPath id="1b2d5cc48c"><path d="M 225.289062 302 L 231 302 L 231 400 L 225.289062 400 Z M 225.289062 302 " clip-rule="nonzero"/></clipPath><clipPath id="1a16a47035"><path d="M 225.289062 276 L 239 276 L 239 291 L 225.289062 291 Z M 225.289062 276 " clip-rule="nonzero"/></clipPath></defs><g clip-path="url(#a556272a84)"><path fill="#b1bec6" d="M 409.574219 369.863281 L 389.890625 350.179688 L 404.496094 343.089844 C 405.496094 342.609375 406.097656 341.570312 406.03125 340.460938 C 405.976562 339.351562 405.238281 338.394531 404.195312 338.035156 L 380.359375 329.835938 L 380.359375 281.894531 L 386.289062 281.894531 C 387.808594 281.894531 389.027344 280.675781 389.027344 279.15625 C 389.027344 277.652344 387.808594 276.421875 386.289062 276.421875 L 380.359375 276.421875 L 380.359375 250.519531 C 380.359375 249 379.128906 247.78125 377.625 247.78125 L 263.027344 247.78125 C 261.507812 247.78125 260.289062 249 260.289062 250.519531 L 260.289062 276.421875 L 253.949219 276.421875 C 252.445312 276.421875 251.210938 277.652344 251.210938 279.15625 C 251.210938 280.675781 252.445312 281.894531 253.949219 281.894531 L 260.289062 281.894531 L 260.289062 346.453125 C 260.289062 347.960938 261.507812 349.191406 263.027344 349.191406 L 355.335938 349.191406 L 364.984375 377.242188 C 365.355469 378.28125 366.316406 379.007812 367.410156 379.078125 C 368.519531 379.160156 369.558594 378.542969 370.039062 377.542969 L 377.140625 362.9375 L 396.8125 382.625 C 397.335938 383.128906 398.03125 383.417969 398.757812 383.417969 C 398.894531 383.417969 399.046875 383.402344 399.183594 383.375 C 399.265625 383.363281 399.347656 383.347656 399.429688 383.320312 C 399.523438 383.308594 399.621094 383.28125 399.714844 383.238281 C 399.742188 383.238281 399.769531 383.226562 399.796875 383.210938 C 400.128906 383.074219 400.429688 382.871094 400.6875 382.625 L 409.574219 373.738281 C 410.078125 373.234375 410.382812 372.535156 410.382812 371.808594 C 410.378906 371.082031 410.078125 370.386719 409.574219 369.863281 Z M 265.765625 253.257812 L 374.882812 253.257812 L 374.882812 308.863281 L 346.722656 280.71875 C 345.695312 279.691406 343.875 279.691406 342.847656 280.71875 L 304.75 318.804688 L 292.007812 306.070312 C 290.980469 305.042969 289.160156 305.042969 288.132812 306.070312 L 265.761719 328.425781 L 265.761719 253.257812 Z M 265.765625 343.714844 L 265.765625 336.175781 L 290.078125 311.875 L 302.820312 324.621094 C 303.847656 325.648438 305.652344 325.648438 306.679688 324.621094 L 344.78125 286.523438 L 374.882812 316.613281 L 374.882812 327.949219 L 349.953125 319.367188 C 348.886719 318.996094 347.75 319.339844 347.050781 320.132812 C 347.039062 320.132812 347.039062 320.132812 347.023438 320.144531 C 346.273438 320.855469 345.96875 321.964844 346.328125 323.003906 L 353.445312 343.714844 Z M 398.757812 376.804688 L 378.292969 356.339844 C 377.664062 355.710938 376.773438 355.4375 375.898438 355.574219 C 375.023438 355.726562 374.28125 356.285156 373.886719 357.082031 L 368.011719 369.199219 L 359.910156 345.652344 C 359.882812 345.558594 359.855469 345.472656 359.8125 345.390625 L 353.257812 326.308594 L 396.144531 341.066406 L 384.042969 346.9375 C 383.234375 347.324219 382.675781 348.074219 382.539062 348.949219 C 382.386719 349.824219 382.675781 350.714844 383.292969 351.347656 L 403.769531 371.8125 Z M 398.757812 376.804688 " fill-opacity="1" fill-rule="nonzero"/></g><path fill="#b1bec6" d="M 400.6875 382.625 C 400.429688 382.882812 400.128906 383.089844 399.796875 383.210938 C 400.128906 383.074219 400.425781 382.871094 400.6875 382.625 Z M 400.6875 382.625 " fill-opacity="1" fill-rule="nonzero"/><path fill="#b1bec6" d="M 421.269531 281.902344 L 403.785156 281.902344 C 402.273438 281.902344 401.046875 280.675781 401.046875 279.164062 C 401.046875 277.652344 402.273438 276.425781 403.785156 276.425781 L 421.269531 276.425781 C 422.78125 276.425781 424.007812 277.652344 424.007812 279.164062 C 424.007812 280.675781 422.78125 281.902344 421.269531 281.902344 Z M 421.269531 281.902344 " fill-opacity="1" fill-rule="nonzero"/><g clip-path="url(#18607cd96a)"><path fill="#b1bec6" d="M 446.972656 290.113281 C 445.460938 290.113281 444.234375 288.886719 444.234375 287.375 L 444.234375 281.902344 L 438.757812 281.902344 C 437.246094 281.902344 436.019531 280.675781 436.019531 279.164062 C 436.019531 277.652344 437.246094 276.425781 438.757812 276.425781 L 446.972656 276.425781 C 448.484375 276.425781 449.710938 277.652344 449.710938 279.164062 L 449.710938 287.375 C 449.710938 288.890625 448.484375 290.113281 446.972656 290.113281 Z M 446.972656 290.113281 " fill-opacity="1" fill-rule="nonzero"/></g><g clip-path="url(#f49597f39f)"><path fill="#b1bec6" d="M 446.972656 399.730469 C 445.460938 399.730469 444.234375 398.503906 444.234375 396.996094 L 444.234375 378.726562 C 444.234375 377.214844 445.460938 375.988281 446.972656 375.988281 C 448.484375 375.988281 449.710938 377.210938 449.710938 378.726562 L 449.710938 396.996094 C 449.710938 398.507812 448.484375 399.730469 446.972656 399.730469 Z M 446.972656 363.195312 C 445.460938 363.195312 444.234375 361.96875 444.234375 360.457031 L 444.234375 342.183594 C 444.234375 340.675781 445.460938 339.449219 446.972656 339.449219 C 448.484375 339.449219 449.710938 340.675781 449.710938 342.183594 L 449.710938 360.457031 C 449.710938 361.96875 448.484375 363.195312 446.972656 363.195312 Z M 446.972656 326.65625 C 445.460938 326.65625 444.234375 325.429688 444.234375 323.917969 L 444.234375 305.648438 C 444.234375 304.136719 445.460938 302.910156 446.972656 302.910156 C 448.484375 302.910156 449.710938 304.136719 449.710938 305.648438 L 449.710938 323.917969 C 449.710938 325.429688 448.484375 326.65625 446.972656 326.65625 Z M 446.972656 326.65625 " fill-opacity="1" fill-rule="nonzero"/></g><g clip-path="url(#e6901f0f06)"><path fill="#b1bec6" d="M 446.972656 426.214844 L 438.757812 426.214844 C 437.246094 426.214844 436.019531 424.988281 436.019531 423.476562 C 436.019531 421.96875 437.246094 420.742188 438.757812 420.742188 L 444.234375 420.742188 L 444.234375 415.265625 C 444.234375 413.753906 445.460938 412.527344 446.972656 412.527344 C 448.484375 412.527344 449.710938 413.753906 449.710938 415.265625 L 449.710938 423.476562 C 449.710938 424.988281 448.484375 426.214844 446.972656 426.214844 Z M 446.972656 426.214844 " fill-opacity="1" fill-rule="nonzero"/></g><g clip-path="url(#c5aad6dd53)"><path fill="#b1bec6" d="M 423.179688 426.214844 L 407.601562 426.214844 C 406.09375 426.214844 404.867188 424.988281 404.867188 423.476562 C 404.867188 421.96875 406.09375 420.742188 407.601562 420.742188 L 423.179688 420.742188 C 424.691406 420.742188 425.917969 421.96875 425.917969 423.476562 C 425.917969 424.988281 424.691406 426.214844 423.179688 426.214844 Z M 392.023438 426.214844 L 376.445312 426.214844 C 374.933594 426.214844 373.707031 424.988281 373.707031 423.476562 C 373.707031 421.96875 374.933594 420.742188 376.445312 420.742188 L 392.023438 420.742188 C 393.535156 420.742188 394.761719 421.96875 394.761719 423.476562 C 394.761719 424.988281 393.535156 426.214844 392.023438 426.214844 Z M 360.867188 426.214844 L 345.289062 426.214844 C 343.777344 426.214844 342.550781 424.988281 342.550781 423.476562 C 342.550781 421.96875 343.777344 420.742188 345.289062 420.742188 L 360.867188 420.742188 C 362.378906 420.742188 363.605469 421.96875 363.605469 423.476562 C 363.605469 424.988281 362.378906 426.214844 360.867188 426.214844 Z M 329.710938 426.214844 L 314.132812 426.214844 C 312.621094 426.214844 311.394531 424.988281 311.394531 423.476562 C 311.394531 421.96875 312.621094 420.742188 314.132812 420.742188 L 329.710938 420.742188 C 331.21875 420.742188 332.445312 421.96875 332.445312 423.476562 C 332.445312 424.988281 331.222656 426.214844 329.710938 426.214844 Z M 298.554688 426.214844 L 282.976562 426.214844 C 281.464844 426.214844 280.238281 424.988281 280.238281 423.476562 C 280.238281 421.96875 281.464844 420.742188 282.976562 420.742188 L 298.554688 420.742188 C 300.066406 420.742188 301.292969 421.96875 301.292969 423.476562 C 301.292969 424.988281 300.066406 426.214844 298.554688 426.214844 Z M 267.398438 426.214844 L 251.820312 426.214844 C 250.308594 426.214844 249.082031 424.988281 249.082031 423.476562 C 249.082031 421.96875 250.308594 420.742188 251.820312 420.742188 L 267.398438 420.742188 C 268.910156 420.742188 270.136719 421.96875 270.136719 423.476562 C 270.136719 424.988281 268.910156 426.214844 267.398438 426.214844 Z M 267.398438 426.214844 " fill-opacity="1" fill-rule="nonzero"/></g><g clip-path="url(#43e2b1692e)"><path fill="#b1bec6" d="M 236.238281 426.214844 L 228.027344 426.214844 C 226.515625 426.214844 225.289062 424.988281 225.289062 423.476562 L 225.289062 415.265625 C 225.289062 413.753906 226.515625 412.527344 228.027344 412.527344 C 229.539062 412.527344 230.765625 413.753906 230.765625 415.265625 L 230.765625 420.742188 L 236.238281 420.742188 C 237.75 420.742188 238.976562 421.96875 238.976562 423.476562 C 238.976562 424.988281 237.75 426.214844 236.238281 426.214844 Z M 236.238281 426.214844 " fill-opacity="1" fill-rule="nonzero"/></g><g clip-path="url(#1b2d5cc48c)"><path fill="#b1bec6" d="M 228.027344 399.730469 C 226.515625 399.730469 225.289062 398.507812 225.289062 396.996094 L 225.289062 378.722656 C 225.289062 377.210938 226.515625 375.984375 228.027344 375.984375 C 229.539062 375.984375 230.765625 377.210938 230.765625 378.722656 L 230.765625 396.996094 C 230.765625 398.507812 229.539062 399.730469 228.027344 399.730469 Z M 228.027344 363.195312 C 226.515625 363.195312 225.289062 361.96875 225.289062 360.457031 L 225.289062 342.183594 C 225.289062 340.675781 226.515625 339.449219 228.027344 339.449219 C 229.539062 339.449219 230.765625 340.675781 230.765625 342.183594 L 230.765625 360.457031 C 230.765625 361.96875 229.539062 363.195312 228.027344 363.195312 Z M 228.027344 326.652344 C 226.515625 326.652344 225.289062 325.429688 225.289062 323.914062 L 225.289062 305.648438 C 225.289062 304.136719 226.515625 302.910156 228.027344 302.910156 C 229.539062 302.910156 230.765625 304.136719 230.765625 305.648438 L 230.765625 323.914062 C 230.765625 325.429688 229.539062 326.652344 228.027344 326.652344 Z M 228.027344 326.652344 " fill-opacity="1" fill-rule="nonzero"/></g><g clip-path="url(#1a16a47035)"><path fill="#b1bec6" d="M 228.027344 290.113281 C 226.515625 290.113281 225.289062 288.890625 225.289062 287.375 L 225.289062 279.164062 C 225.289062 277.652344 226.515625 276.425781 228.027344 276.425781 L 236.238281 276.425781 C 237.75 276.425781 238.976562 277.652344 238.976562 279.164062 C 238.976562 280.675781 237.75 281.902344 236.238281 281.902344 L 230.765625 281.902344 L 230.765625 287.375 C 230.765625 288.890625 229.539062 290.113281 228.027344 290.113281 Z M 228.027344 290.113281 " fill-opacity="1" fill-rule="nonzero"/></g><path fill="#b1bec6" d="M 296.613281 294.347656 C 289.132812 294.347656 283.050781 288.261719 283.050781 280.785156 C 283.050781 273.308594 289.136719 267.226562 296.613281 267.226562 C 304.085938 267.226562 310.171875 273.3125 310.171875 280.785156 C 310.171875 288.261719 304.089844 294.347656 296.613281 294.347656 Z M 296.613281 272.699219 C 292.152344 272.699219 288.527344 276.328125 288.527344 280.785156 C 288.527344 285.242188 292.15625 288.867188 296.613281 288.867188 C 301.070312 288.867188 304.695312 285.238281 304.695312 280.785156 C 304.695312 276.328125 301.070312 272.699219 296.613281 272.699219 Z M 296.613281 272.699219 " fill-opacity="1" fill-rule="nonzero"/></svg>