<svg width="25" height="25" viewBox="0 0 25 25" fill="none" xmlns="http://www.w3.org/2000/svg">
<g id="Instagram">
<path id="Vector" d="M8.5 3.68213C5.739 3.68213 3.5 5.92113 3.5 8.68213V16.6821C3.5 19.4431 5.739 21.6821 8.5 21.6821H16.5C19.261 21.6821 21.5 19.4431 21.5 16.6821V8.68213C21.5 5.92113 19.261 3.68213 16.5 3.68213H8.5ZM18.5 5.68213C19.052 5.68213 19.5 6.13013 19.5 6.68213C19.5 7.23413 19.052 7.68213 18.5 7.68213C17.948 7.68213 17.5 7.23413 17.5 6.68213C17.5 6.13013 17.948 5.68213 18.5 5.68213ZM12.5 7.68213C15.261 7.68213 17.5 9.92113 17.5 12.6821C17.5 15.4431 15.261 17.6821 12.5 17.6821C9.739 17.6821 7.5 15.4431 7.5 12.6821C7.5 9.92113 9.739 7.68213 12.5 7.68213ZM12.5 9.68213C11.7044 9.68213 10.9413 9.9982 10.3787 10.5608C9.81607 11.1234 9.5 11.8865 9.5 12.6821C9.5 13.4778 9.81607 14.2408 10.3787 14.8034C10.9413 15.3661 11.7044 15.6821 12.5 15.6821C13.2956 15.6821 14.0587 15.3661 14.6213 14.8034C15.1839 14.2408 15.5 13.4778 15.5 12.6821C15.5 11.8865 15.1839 11.1234 14.6213 10.5608C14.0587 9.9982 13.2956 9.68213 12.5 9.68213Z" fill="#F7F5F2"/>
</g>
</svg>
