<svg width="151" height="467" viewBox="0 0 151 467" fill="none" xmlns="http://www.w3.org/2000/svg">
<path d="M51.6201 81.4063L68.6201 47.5969L51.6201 13.7875L41.3201 34.2282L48.0201 47.5969L41.2201 60.675L51.6201 81.4063ZM75.3201 47.5L51.6201 94L37.9201 67.2625L24.3201 94L0.620117 47.5L24.3201 1.09692L38.0201 27.8344L51.6201 1.09692L75.3201 47.5ZM24.3201 13.6907L7.32012 47.5L24.3201 81.3094L34.6201 60.7719L27.9201 47.4032L34.7201 34.2282L24.3201 13.6907Z" stroke="#07604C" stroke-width="0.4397" stroke-miterlimit="10"/>
<path d="M126.42 81.4062L143.42 47.5969L126.42 13.7875L116.12 34.325L122.82 47.6937L116.02 60.675L126.42 81.4062ZM150.12 47.5L126.42 94L112.72 67.2625L99.1203 94L75.3203 47.5L99.0203 1L112.72 27.7375L126.42 1L150.12 47.5ZM99.1203 13.6906L82.1203 47.5L99.1203 81.3094L109.42 60.7719L102.72 47.4031L109.52 34.2281L99.1203 13.6906Z" stroke="#07604C" stroke-width="0.4397" stroke-miterlimit="10"/>
<path d="M51.6201 174.309L68.6201 140.5L51.6201 106.691L41.3201 127.131L48.0201 140.5L41.2201 153.675L51.6201 174.309ZM75.3201 140.5L51.6201 187L37.9201 160.262L24.3201 186.903L0.620117 140.403L24.3201 93.9031L37.9201 120.737L51.6201 93.9999L75.3201 140.5ZM24.3201 106.594L7.32012 140.403L24.3201 174.212L34.6201 153.675L27.9201 140.306L34.7201 127.131L24.3201 106.594Z" stroke="#07604C" stroke-width="0.4397" stroke-miterlimit="10"/>
<path d="M126.42 174.309L143.42 140.5L126.42 106.691L116.12 127.228L122.82 140.597L116.02 153.772L126.42 174.309ZM150.12 140.5L126.42 187L112.72 160.263L99.0203 187L75.3203 140.5L99.0203 94L112.72 120.737L126.42 94L150.12 140.5ZM99.1203 106.594L82.1203 140.403L99.1203 174.212L109.42 153.675L102.72 140.306L109.52 127.131L99.1203 106.594Z" stroke="#07604C" stroke-width="0.4397" stroke-miterlimit="10"/>
<path d="M51.6201 267.213L68.6201 233.403L51.6201 199.594L41.3201 220.035L48.0201 233.403L41.2201 246.578L51.6201 267.213ZM75.3201 233.403L51.6201 279.903L37.9201 253.166L24.3201 279.806L0.620117 233.306L24.3201 186.806L38.0201 213.544L51.7201 186.806L75.3201 233.403ZM24.3201 199.497L7.32012 233.306L24.3201 267.116L34.6201 246.675L27.9201 233.306L34.7201 220.131L24.3201 199.497Z" stroke="#07604C" stroke-width="0.4397" stroke-miterlimit="10"/>
<path d="M126.42 267.212L143.42 233.403L126.42 199.594L116.12 220.131L122.82 233.5L116.02 246.675L126.42 267.212ZM150.12 233.403L126.42 279.903L112.72 253.166L99.0203 279.903L75.3203 233.403L99.0203 186.903L112.72 213.641L126.42 186.903L150.12 233.403ZM99.1203 199.497L82.1203 233.306L99.1203 267.116L109.42 246.578L102.72 233.209L109.52 220.034L99.1203 199.497Z" stroke="#07604C" stroke-width="0.4397" stroke-miterlimit="10"/>
<path d="M51.6201 360.116L68.6201 326.306L51.6201 292.497L41.3201 312.937L48.0201 326.306L41.2201 339.481L51.6201 360.116ZM75.3201 326.306L51.6201 372.806L37.9201 346.069L24.3201 372.709L0.620117 326.209L24.3201 279.709L38.0201 306.447L51.7201 279.709L75.3201 326.306ZM24.3201 292.4L7.32012 326.209L24.3201 360.019L34.6201 339.481L27.9201 326.112L34.7201 312.937L24.3201 292.4Z" stroke="#07604C" stroke-width="0.4397" stroke-miterlimit="10"/>
<path d="M126.42 360.116L143.42 326.306L126.42 292.497L116.12 313.035L122.82 326.403L116.02 339.578L126.42 360.116ZM150.12 326.306L126.42 372.806L112.72 346.069L99.0203 372.806L75.3203 326.306L99.0203 279.806L112.72 306.544L126.42 279.806L150.12 326.306ZM99.1203 292.4L82.1203 326.21L99.1203 360.019L109.42 339.481L102.72 326.113L109.52 312.938L99.1203 292.4Z" stroke="#07604C" stroke-width="0.4397" stroke-miterlimit="10"/>
<path d="M51.6201 453.019L68.6201 419.209L51.6201 385.4L41.3201 405.841L48.0201 419.209L41.2201 432.384L51.6201 453.019ZM75.3201 419.209L51.6201 465.709L37.9201 438.972L24.3201 465.613L0.620117 419.113L24.3201 372.613L38.0201 399.35L51.7201 372.613L75.3201 419.209ZM24.3201 385.303L7.32012 419.113L24.3201 453.019L34.6201 432.481L27.9201 419.113L34.7201 405.938L24.3201 385.303Z" stroke="#07604C" stroke-width="0.4397" stroke-miterlimit="10"/>
<path d="M126.42 453.019L143.42 419.209L126.42 385.4L116.12 405.938L122.82 419.306L116.02 432.481L126.42 453.019ZM150.12 419.209L126.42 465.709L112.72 438.972L99.1199 465.613L75.4199 419.113L99.1199 372.613L112.82 399.35L126.52 372.613L150.12 419.209ZM99.1199 385.303L82.1199 419.113L99.1199 452.922L109.42 432.384L102.72 419.016L109.52 405.841L99.1199 385.303Z" stroke="#07604C" stroke-width="0.4397" stroke-miterlimit="10"/>
</svg>
