<svg width="35" height="75" viewBox="0 0 35 75" fill="none" xmlns="http://www.w3.org/2000/svg">
<path fill-rule="evenodd" clip-rule="evenodd" d="M7.56336 33.8128L4.78571 29.3111L18.205 7.81505L30.3708 29.2465L27.8478 33.4662L20.5361 20.5857L18.2903 16.6295L15.8813 20.4885L7.56336 33.8128ZM5.19956 37.5993L0.0779506 29.2987L15.9593 3.8589L18.3683 0L20.614 3.95614L35 29.2987L30.1176 37.4647L34.922 45.9283L20.049 70.8039L17.7359 74.6726L15.369 70.8366L0 45.9283L5.19956 37.5993ZM27.7582 41.4109L30.2928 45.876L17.6821 66.9679L4.70776 45.9406L7.54352 41.3981L15.4469 54.207L17.8138 58.043L20.1269 54.1743L27.7582 41.4109ZM25.4884 37.4124L17.76 50.3383L9.90732 37.6116L18.1271 24.4446L25.4884 37.4124Z" fill="#B5905B"/>
</svg>
