<svg width="25" height="25" viewBox="0 0 25 25" fill="none" xmlns="http://www.w3.org/2000/svg">
<g id="phone">
<path id="Vector" d="M7.04 5.5C7.1 6.39 7.25 7.26 7.49 8.09L6.29 9.29C5.88 8.09 5.62 6.82 5.53 5.5H7.04ZM16.9 17.52C17.75 17.76 18.62 17.91 19.5 17.97V19.46C18.18 19.37 16.91 19.11 15.7 18.71L16.9 17.52ZM8 3.5H4.5C3.95 3.5 3.5 3.95 3.5 4.5C3.5 13.89 11.11 21.5 20.5 21.5C21.05 21.5 21.5 21.05 21.5 20.5V17.01C21.5 16.46 21.05 16.01 20.5 16.01C19.26 16.01 18.05 15.81 16.93 15.44C16.83 15.4 16.72 15.39 16.62 15.39C16.36 15.39 16.11 15.49 15.91 15.68L13.71 17.88C10.88 16.43 8.56 14.12 7.12 11.29L9.32 9.09C9.6 8.81 9.68 8.42 9.57 8.07C9.2 6.95 9 5.75 9 4.5C9 3.95 8.55 3.5 8 3.5Z" fill="white"/>
</g>
</svg>
