<svg width="25" height="25" viewBox="0 0 25 25" fill="none" xmlns="http://www.w3.org/2000/svg">
<g id="room">
<g id="Vector">
<path d="M12.5 2.5C8.63 2.5 5.5 5.63 5.5 9.5C5.5 14.75 12.5 22.5 12.5 22.5C12.5 22.5 19.5 14.75 19.5 9.5C19.5 5.63 16.37 2.5 12.5 2.5ZM7.5 9.5C7.5 6.74 9.74 4.5 12.5 4.5C15.26 4.5 17.5 6.74 17.5 9.5C17.5 12.38 14.62 16.69 12.5 19.38C10.42 16.71 7.5 12.35 7.5 9.5Z" fill="white"/>
<path d="M12.5 12C13.8807 12 15 10.8807 15 9.5C15 8.11929 13.8807 7 12.5 7C11.1193 7 10 8.11929 10 9.5C10 10.8807 11.1193 12 12.5 12Z" fill="white"/>
</g>
</g>
</svg>
