<svg width="16" height="16" viewBox="0 0 16 16" fill="none" xmlns="http://www.w3.org/2000/svg">
<g id=".left-icon">
<path id="Vector (Stroke)" fillRule="evenodd" clipRule="evenodd" d="M3.33301 2.66665C3.1562 2.66665 2.98663 2.73688 2.8616 2.86191C2.73658 2.98693 2.66634 3.1565 2.66634 3.33331V12.6666C2.66634 12.8435 2.73658 13.013 2.8616 13.1381C2.98663 13.2631 3.1562 13.3333 3.33301 13.3333H12.6663C12.8432 13.3333 13.0127 13.2631 13.1377 13.1381C13.2628 13.013 13.333 12.8435 13.333 12.6666V5.60946L10.3902 2.66665H3.33301ZM1.91879 1.9191C2.29387 1.54403 2.80257 1.33331 3.33301 1.33331H10.6663C10.8432 1.33331 11.0127 1.40355 11.1377 1.52858L14.4711 4.86191C14.5961 4.98693 14.6663 5.1565 14.6663 5.33331V12.6666C14.6663 13.1971 14.4556 13.7058 14.0806 14.0809C13.7055 14.4559 13.1968 14.6666 12.6663 14.6666H3.33301C2.80257 14.6666 2.29387 14.4559 1.91879 14.0809C1.54372 13.7058 1.33301 13.1971 1.33301 12.6666V3.33331C1.33301 2.80288 1.54372 2.29417 1.91879 1.9191Z" fill="white"/>
<path id="Vector (Stroke)_2" fillRule="evenodd" clipRule="evenodd" d="M4 8.66667C4 8.29848 4.29848 8 4.66667 8H11.3333C11.7015 8 12 8.29848 12 8.66667V14C12 14.3682 11.7015 14.6667 11.3333 14.6667C10.9651 14.6667 10.6667 14.3682 10.6667 14V9.33333H5.33333V14C5.33333 14.3682 5.03486 14.6667 4.66667 14.6667C4.29848 14.6667 4 14.3682 4 14V8.66667Z" fill="white"/>
<path id="Vector (Stroke)_3" fillRule="evenodd" clipRule="evenodd" d="M4.66667 1.33331C5.03486 1.33331 5.33333 1.63179 5.33333 1.99998V4.66665H10C10.3682 4.66665 10.6667 4.96512 10.6667 5.33331C10.6667 5.7015 10.3682 5.99998 10 5.99998H4.66667C4.29848 5.99998 4 5.7015 4 5.33331V1.99998C4 1.63179 4.29848 1.33331 4.66667 1.33331Z" fill="white"/>
</g>
</svg>
