<svg width="24" height="24" viewBox="0 0 24 24" fill="none" xmlns="http://www.w3.org/2000/svg">
<g id="set_meal">
<path id="Vector" d="M21.05 18.07L3.08 19.01L3 17.51L20.98 16.57L21.05 18.07ZM21 19.99H3V21.49H21V19.99ZM23 13.51V4.51001C23 3.41001 22.1 2.51001 21 2.51001H3C1.9 2.51001 1 3.41001 1 4.51001V13.51C1 14.61 1.9 15.51 3 15.51H21C22.1 15.51 23 14.61 23 13.51ZM21 13.51H3V4.51001H21V13.51ZM20 6.51001C18.32 6.51001 16.96 7.49001 16.79 8.74001C16.15 8.01001 14.06 6.01001 10.25 6.01001C5.58 6.01001 3.5 9.01001 3.5 9.01001C3.5 9.01001 5.58 12.01 10.25 12.01C14.06 12.01 16.15 10.01 16.79 9.28001C16.96 10.53 18.32 11.51 20 11.51V6.51001Z" fill="white"/>
</g>
</svg>
