<svg width="60" height="61" viewBox="0 0 60 61" fill="none" xmlns="http://www.w3.org/2000/svg">
<path fill-rule="evenodd" clip-rule="evenodd" d="M9.96415 35.1217L5.70481 30.9684L9.96415 26.8634V35.1217ZM9.96415 40.6754L0 30.9594L9.96415 21.3562V13.762V9.76203H13.9641H21.9941L28.5057 3.48631L31.4249 0.672852L34.1462 3.55721L40.0004 9.76203H47.7823H51.7823V13.762V22.2496L60 30.9594L51.7823 39.2288V47.5802V51.5802H47.7823H39.508L33.2752 57.8522L30.4722 60.6728L27.604 57.8761L21.1474 51.5802H13.9641H9.96415V47.5802V40.6754ZM17.0452 47.5802H13.9641V44.5758L17.0452 47.5802ZM22.7408 47.5802L13.9641 39.0221V23.0082L23.5579 13.762H38.2007L47.7823 23.9175V37.5709L37.8356 47.5802H22.7408ZM26.843 51.5802L30.407 55.0555L33.8606 51.5802H26.843ZM43.4831 47.5802H47.7823V43.2539L43.4831 47.5802ZM51.7823 33.5458L54.3904 30.9213L51.7823 28.1571V33.5458ZM47.7823 18.01V13.762H43.7744L47.7823 18.01ZM34.4267 9.76203L31.227 6.37067L27.7082 9.76203H34.4267ZM17.8437 13.762H13.9641V17.5011L17.8437 13.762Z" fill="#B5905B"/>
</svg>
