<svg width="52" height="59" viewBox="0 0 52 59" fill="none" xmlns="http://www.w3.org/2000/svg">
<path fill-rule="evenodd" clip-rule="evenodd" d="M17.6821 50.8042L4.70776 29.7769L18.1271 8.28087L24.0918 18.7884L17.0084 30.135L23.6268 40.8614L17.6821 50.8042ZM25.9937 44.6974L20.049 54.6402L17.7359 58.5089L15.369 54.6729L0 29.7646L15.8813 4.32473L18.2903 0.46582L20.5361 4.42197L26.5008 14.9295L32.8898 4.69518L35.2988 0.836274L37.5445 4.79242L51.9305 30.135L37.0574 55.0106L34.7443 58.8793L32.3774 55.0433L25.9937 44.6974ZM28.7465 18.8856L35.1355 8.65132L47.3013 30.0828L34.6905 51.1746L28.3068 40.8287L34.922 29.7646L28.7465 18.8856ZM26.3375 22.7445L30.2928 29.7123L25.9399 36.9927L21.7162 30.1473L26.3375 22.7445Z" fill="#B5905B"/>
</svg>
